<svg id="juliana-logo-simple" viewBox="0 0 807.5 120">
    <title>Juliana Bicycles</title>
    <path d="M182.9,6.44V70.56c0,9.63-1.85,14.19-3.42,16.31-3.35,4.61-8,6.84-14.24,6.84s-10.87-2.23-14.19-6.78c-2.27-3.23-3.41-8.73-3.41-16.37V6.44h-23.4V74.69c0,11.54,3.71,21.26,11,28.81a42,42,0,0,0,59.39.69l.08-.08c.2-.2.41-.4.6-.61,7.28-7.55,11-17.27,11-28.81V6.44Zm15,68.25c0,9.46-2.81,17-8.6,23a33.75,33.75,0,0,1-47.71.36l0,0c-.12-.11-.23-.22-.34-.34-5.79-6-8.63-13.55-8.63-23V14.84h6.67V70.6c0,9.54,1.6,16.46,5,21.22,5,6.83,12,10.3,21,10.3s16-3.47,21-10.3c3.35-4.58,5-11.53,5-21.22V14.84h6.66Z" transform="translate(-1)"></path>
    <path d="M282.05,91.82V6.44h-23.4V114.32h59V91.82ZM309.22,106H267V14.84h6.67v85.41h35.54Z" transform="translate(-1)"></path>
    <path d="M364,6.44V114.32h23.37V6.44ZM379,106h-6.63V14.84H379Z" transform="translate(-1)"></path>
    <path d="M640.34,6.28V68.44L567.79,0V114.38h23.37V51.77L663.71,120V6.28Zm15,95L582.78,33v73.82h-6.66v-88l72.55,68.44V13.84h6.66Z" transform="translate(-1)"></path>
    <path d="M479.85,18.48l41.3,87.77h-7.87l-10.5-22.13H455.45l-11,22.13h-7.62l43-87.77M480,0,424,114.25h25.5l11-22.13h37.12l10.5,22.13h25.63L480,0Z" transform="translate(-1)"></path><path class="cls-2" d="M479.21,50.78l8.68,18.29H470.11l9.1-18.29m.17-16.61-20.63,42.9H499.5Z" transform="translate(-1)"></path>
    <path d="M51.54,6.44V70.56c0,9.63-1.85,14.19-3.39,16.31a15.85,15.85,0,0,1-5.27,4.7,15.17,15.17,0,0,1-5.14,1.81,8.59,8.59,0,0,1-1.6.24,15.07,15.07,0,0,1-3,.25c-7.63,0-14-4.32-18-10.21L1,100.15a32.72,32.72,0,0,0,2.87,3.35c.6.64,1.24,1.24,1.84,1.81A42.1,42.1,0,0,0,64,103.5C71.27,96,75,86.23,75,74.69V6.44Zm15,68.25c0,9.46-2.8,17-8.6,23a32,32,0,0,1-24.07,10.06A31.63,31.63,0,0,1,11.16,99l3.93-4.53c5.33,5.15,11.44,7.41,19.13,7.41,9,0,15.7-3.24,20.66-10.07,3.35-4.58,5-11.53,5-21.22V14.84h6.64Z" transform="translate(-1)"></path>
    <path d="M754.6,18.48l41.3,87.77H788l-10.5-22.13H730.2l-11,22.13h-7.62l43-87.77M754.75,0l-56,114.25h25.5l11-22.13h37.13l10.5,22.13H808.5L754.75,0Z" transform="translate(-1)"></path><path class="cls-2" d="M754,50.78l8.68,18.29H744.86L754,50.78m.16-16.61L733.5,77.07h40.75Z" transform="translate(-1)"></path>    
</svg>