<svg id="santa-cruz-logo--inline" viewBox="0 0 445.7 35.73">
    <title>Santa Cruz Bicycles</title>  
    <path class="cls-1" d="M647.41,374.37l-16.4,28H616.74l16.4-28H617.57l-16.4,28H584l-2.29-22.15-13,22.15H554.5l20.91-35.69h17.32L595,388.54l12.81-21.87h56.33l-4.51,7.69Zm145.91,20.31c-2.47,4.23-1.08,7.65,3.11,7.7h26.33c4.25,0,9.71-3.45,12.2-7.7h0l11.9-20.31H871l-32.71,28H879l4.51-7.7H865.33l30.59-28H837.08l-16.4,28H807.59l16.4-28H809.72Zm-239-28H541l-40.71,35.7h54Zm-14.06,28H523.37l17.29-15.16Zm153.07-28H680l-40.72,35.7h54Zm-14.07,28H662.37l17.29-15.16Zm-205.95-14h0c-2.47,4.22-1.08,7.66,3.11,7.7h16.94l-3.69,6.3H465.08l-4.51,7.7h31.14c4.25,0,9.71-3.45,12.21-7.7h0l3.7-6.3h0c2.5-4.25,1.07-7.7-3.19-7.7H487.56l3.69-6.31h24.57l4.51-7.69H489.18c-4.25,0-9.72,3.45-12.21,7.69h0Zm248.86,14L734,374.37h20.35l4.51-7.69H732c-4.25,0-9.71,3.45-12.2,7.69h0l-11.9,20.31h0l0,0h0c-2.47,4.22-1.08,7.65,3.11,7.7h27l4.52-7.72Zm42.81-28L744,402.37H758.3l6.9-11.77h2.86l4.88,11.77h15L782,390.6h0c4.25,0,9.72-3.45,12.21-7.7h0l5-8.53h0c2.49-4.25,1.07-7.7-3.19-7.7H764.95ZM780,382.9H769.7l5-8.53H785Zm120.44-15.66h-1.55v3.28H898v-3.28h-1.55v-.57h4Zm.72-.57h1.32l1,2.32c.14.32.21.54.21.54h0s.07-.22.2-.55l1-2.31h1.31v3.85h-.89V367.4h0a7,7,0,0,1-.28.74l-1,2.38h-.71l-1-2.38a7.07,7.07,0,0,1-.28-.74h0v3.12h-.83Z" transform="translate(-460.57 -366.67)"></path>  
</svg>